<?xml version="1.0" encoding="UTF-8" standalone="no"?>
<svg
   xmlns:dc="http://purl.org/dc/elements/1.1/"
   xmlns:cc="http://creativecommons.org/ns#"
   xmlns:rdf="http://www.w3.org/1999/02/22-rdf-syntax-ns#"
   xmlns:svg="http://www.w3.org/2000/svg"
   xmlns="http://www.w3.org/2000/svg"
   xmlns:sodipodi="http://sodipodi.sourceforge.net/DTD/sodipodi-0.dtd"
   xmlns:inkscape="http://www.inkscape.org/namespaces/inkscape"
   version="1.1"
   width="41.998900cm"
   height="29.700220cm"
   viewBox="0 0 165350 116930"
   id="svg1394"
   sodipodi:docname="middle-case.svg"
   inkscape:version="1.0 (4035a4fb49, 2020-05-01)">
  <metadata
     id="metadata1400">
    <rdf:RDF>
      <cc:Work
         rdf:about="">
        <dc:format>image/svg+xml</dc:format>
        <dc:type
           rdf:resource="http://purl.org/dc/dcmitype/StillImage" />
        <dc:title>SVG Picture created as Vision-brd.svg date 2021/08/11 18:58:41 </dc:title>
      </cc:Work>
    </rdf:RDF>
  </metadata>
  <defs
     id="defs1398" />
  <sodipodi:namedview
     inkscape:document-rotation="0"
     inkscape:current-layer="svg1394"
     inkscape:window-maximized="1"
     inkscape:window-y="-8"
     inkscape:window-x="1016"
     inkscape:cy="667.11539"
     inkscape:cx="753.13115"
     inkscape:zoom="0.85881823"
     showgrid="false"
     id="namedview1396"
     inkscape:window-height="1017"
     inkscape:window-width="1920"
     inkscape:pageshadow="2"
     inkscape:pageopacity="0"
     guidetolerance="10"
     gridtolerance="10"
     objecttolerance="10"
     borderopacity="1"
     bordercolor="#666666"
     pagecolor="#ffffff" />
  <title
     id="title2">SVG Picture created as Vision-brd.svg date 2021/08/11 18:58:41 </title>
  <desc
     id="desc4">Picture generated by PCBNEW </desc>
  <g
     transform="matrix(0.9781479,-0.20791146,-0.20791146,-0.9781479,9689.6209,122045.97)"
     id="g1607-8-7-0">
    <g
       id="g1458-2-6-1-2-9"
       transform="translate(65555.808,3.9301822e-4)">
      <path
         d="m 52083.045,30798.214 19870.795,-4226.396 516.274,2428.879 1636.709,-348.165 6596.105,31032.281 -1634.518,350.026 516.273,2428.878 -19871.907,4221.165 -515.995,-2427.571 -8097.737,1722.591 516.273,2428.879 -19871.907,4221.165 -515.996,-2427.571 -13845.808,2944.38 516.274,2428.879 -19871.9075,4221.164 -515.9955,-2427.571 -10534.108,2240.458 516.274,2428.879 -19871.908,4221.164 -515.995,-2427.571 -2791.668,594.104 -6596.37,-31033.524 2790.231,-592.092 -515.995,-2427.571 19870.795,-4226.396 516.273,2428.879 2567.314,-546.152 7269.0071,-3226.721 -1009.4401,-2267.242 18557.8612,-8265.406 1009.9671,2268.449 7367.5577,-3284.388 8066.467,1.227 v -2481.805 l 20315.293,-2.674 v 2483.142 l 8077.526,-28.216 z m 32905.322,31842.248 -123391.772,26226.84 -8173.927,-38450.004 28330.342,-6018.32 33608.483,-14893.34 36737.434,-61.938 24717.011,-5261.53 z"
         style="fill:none;stroke:#000000;stroke-width:104.167px;stroke-linecap:butt;stroke-linejoin:miter;stroke-opacity:1"
         id="path1451-5-5-2-5-4" />
    </g>
  </g>
</svg>
